<?xml version="1.0" encoding="utf-8"?>
<svg width="32" height="32" viewBox="0 0 512 512" xmlns="http://www.w3.org/2000/svg" role="img" aria-label="Ticket outline cyan with black border (32x32)">
  <g fill="none" stroke-linejoin="round" stroke-linecap="round" stroke-miterlimit="10">
    <!-- Black base stroke (slightly larger) -->
    <path stroke="#000000" stroke-width="31" d="M366.05,146a46.7,46.7,0,0,1-2.42-63.42,3.87,3.87,0,0,0-.22-5.26L319.28,33.14a3.89,3.89,0,0,0-5.5,0l-70.34,70.34a23.62,23.62,0,0,0-5.71,9.24h0a23.66,23.66,0,0,1-14.95,15h0a23.7,23.7,0,0,0-9.25,5.71L33.14,313.78a3.89,3.89,0,0,0,0,5.5l44.13,44.13a3.87,3.87,0,0,0,5.26.22,46.69,46.69,0,0,1,65.84,65.84,3.87,3.87,0,0,0,.22,5.26l44.13,44.13a3.89,3.89,0,0,0,5.5,0l180.4-180.39a23.7,23.7,0,0,0,5.71-9.25h0a23.66,23.66,0,0,1,14.95-15h0a23.62,23.62,0,0,0,9.24-5.71l70.34-70.34a3.89,3.89,0,0,0,0-5.5l-44.13-44.13a3.87,3.87,0,0,0-5.26-.22A46.7,46.7,0,0,1,366.05,146Z"/>
    <!-- Cyan top stroke (slightly smaller) -->
    <path stroke="#00FFFF" stroke-width="26" d="M366.05,146a46.7,46.7,0,0,1-2.42-63.42,3.87,3.87,0,0,0-.22-5.26L319.28,33.14a3.89,3.89,0,0,0-5.5,0l-70.34,70.34a23.62,23.62,0,0,0-5.71,9.24h0a23.66,23.66,0,0,1-14.95,15h0a23.7,23.7,0,0,0-9.25,5.71L33.14,313.78a3.89,3.89,0,0,0,0,5.5l44.13,44.13a3.87,3.87,0,0,0,5.26.22,46.69,46.69,0,0,1,65.84,65.84,3.87,3.87,0,0,0,.22,5.26l44.13,44.13a3.89,3.89,0,0,0,5.5,0l180.4-180.39a23.7,23.7,0,0,0,5.71-9.25h0a23.66,23.66,0,0,1,14.95-15h0a23.62,23.62,0,0,0,9.24-5.71l70.34-70.34a3.89,3.89,0,0,0,0-5.5l-44.13-44.13a3.87,3.87,0,0,0-5.26-.22A46.7,46.7,0,0,1,366.05,146Z"/>
    <!-- Black + cyan for small lines -->
    <line x1="250.5" y1="140.44" x2="233.99" y2="123.93" stroke="#000000" stroke-width="31"/>
    <line x1="250.5" y1="140.44" x2="233.99" y2="123.93" stroke="#00FFFF" stroke-width="26"/>
    <line x1="294.52" y1="184.46" x2="283.51" y2="173.46" stroke="#000000" stroke-width="31"/>
    <line x1="294.52" y1="184.46" x2="283.51" y2="173.46" stroke="#00FFFF" stroke-width="26"/>
    <line x1="338.54" y1="228.49" x2="327.54" y2="217.48" stroke="#000000" stroke-width="31"/>
    <line x1="338.54" y1="228.49" x2="327.54" y2="217.48" stroke="#00FFFF" stroke-width="26"/>
    <line x1="388.07" y1="278.01" x2="371.56" y2="261.5" stroke="#000000" stroke-width="31"/>
    <line x1="388.07" y1="278.01" x2="371.56" y2="261.5" stroke="#00FFFF" stroke-width="26"/>
  </g>
</svg>